<svg xmlns="http://www.w3.org/2000/svg" viewBox="0 0 192 192" width="192" height="192">
  <defs>
    <linearGradient id="bgGradient192" x1="0%" y1="0%" x2="100%" y2="100%">
      <stop offset="0%" style="stop-color:#05080f;stop-opacity:1" />
      <stop offset="100%" style="stop-color:#0d1420;stop-opacity:1" />
    </linearGradient>
    <filter id="glow192">
      <feGaussianBlur stdDeviation="3" result="coloredBlur"/>
      <feMerge>
        <feMergeNode in="coloredBlur"/>
        <feMergeNode in="SourceGraphic"/>
      </feMerge>
    </filter>
  </defs>
  
  <rect width="192" height="192" rx="42" fill="url(#bgGradient192)"/>
  
  <g opacity="0.15">
    <circle cx="96" cy="96" r="75" fill="none" stroke="#a3cf33" stroke-width="2"/>
    <circle cx="96" cy="96" r="60" fill="none" stroke="#a3cf33" stroke-width="2"/>
    <circle cx="96" cy="96" r="45" fill="none" stroke="#a3cf33" stroke-width="2"/>
  </g>
  
  <text 
    x="96" 
    y="116" 
    font-family="'Plus Jakarta Sans', 'Arial Black', sans-serif" 
    font-size="68" 
    font-weight="900" 
    text-anchor="middle" 
    fill="#a3cf33"
    filter="url(#glow192)">5:40</text>
  
  <g transform="translate(96, 52)" opacity="0.9">
    <circle cx="0" cy="0" r="13" fill="#a3cf33" opacity="0.2"/>
    <path d="M -6,-6 L -6,2 Q -6,8 0,8 Q 6,8 6,2 L 6,-6 Q 6,-10 0,-10 Q -6,-10 -6,-6 Z" 
          fill="#a3cf33"/>
    <path d="M -10,2 Q -10,12 0,14 Q 10,12 10,2" 
          fill="none" 
          stroke="#a3cf33" 
          stroke-width="2" 
          stroke-linecap="round"/>
    <line x1="0" y1="14" x2="0" y2="18" stroke="#a3cf33" stroke-width="2" stroke-linecap="round"/>
    <line x1="-6" y1="18" x2="6" y2="18" stroke="#a3cf33" stroke-width="2" stroke-linecap="round"/>
  </g>
</svg>
